<svg width="87" height="87" viewBox="0 0 87 87" fill="none" xmlns="http://www.w3.org/2000/svg">
<path opacity="0.21" fill-rule="evenodd" clip-rule="evenodd" d="M0 43.5V53.65C0 72.0687 14.9313 87 33.35 87H43.5H53.65C72.0687 87 87 72.0687 87 53.65V43.5V33.35C87 14.9313 72.0687 0 53.65 0H43.5H33.35C14.9313 0 0 14.9313 0 33.35V43.5Z" fill="#FD9F10"/>
<path d="M27.7111 59.2889H61.5444C62.7901 59.2889 63.7999 60.2987 63.7999 61.5445C63.7999 62.7902 62.7901 63.8 61.5444 63.8H25.4555C24.2098 63.8 23.2 62.7902 23.2 61.5445V25.4556C23.2 24.2099 24.2098 23.2 25.4555 23.2C26.7012 23.2 27.7111 24.2099 27.7111 25.4556V59.2889Z" fill="#FD9F10"/>
<path opacity="0.5" d="M36.1232 49.5537C35.2713 50.4625 33.8439 50.5086 32.9351 49.6566C32.0263 48.8046 31.9802 47.3772 32.8322 46.4684L41.2906 37.4462C42.1145 36.5673 43.4838 36.4911 44.4002 37.2731L51.076 42.9698L59.7741 31.9523C60.5459 30.9746 61.9643 30.8077 62.942 31.5796C63.9198 32.3515 64.0866 33.7699 63.3147 34.7476L53.1647 47.6043C52.372 48.6085 50.9035 48.7529 49.9303 47.9224L43.1094 42.1019L36.1232 49.5537Z" fill="#FD9F10"/>
</svg>
