<svg width="88" height="88" viewBox="0 0 88 88" fill="none" xmlns="http://www.w3.org/2000/svg">
<path opacity="0.21" fill-rule="evenodd" clip-rule="evenodd" d="M0.0163574 43.6967V53.8525C0.0163574 72.2816 14.9561 87.2213 33.3852 87.2213H43.8732H54.3612C72.7903 87.2213 87.73 72.2815 87.73 53.8524V43.6967V33.541C87.73 15.1119 72.7903 0.172134 54.3612 0.172134H43.8732H33.3852C14.9561 0.172134 0.0163574 15.1119 0.0163574 33.541V43.6967Z" fill="#E33230"/>
<path opacity="0.587821" fill-rule="evenodd" clip-rule="evenodd" d="M30.2284 34.0246C30.2284 38.298 33.7191 41.7623 38.0252 41.7623C42.3312 41.7623 45.8219 38.298 45.8219 34.0246C45.8219 29.7512 42.3312 26.2869 38.0252 26.2869C33.7191 26.2869 30.2284 29.7512 30.2284 34.0246ZM49.7205 41.7624C49.7205 44.9675 52.3386 47.5657 55.5681 47.5657C58.7976 47.5657 61.4157 44.9675 61.4157 41.7624C61.4157 38.5573 58.7976 35.9591 55.5681 35.9591C52.3386 35.9591 49.7205 38.5573 49.7205 41.7624Z" fill="#E33230"/>
<path fill-rule="evenodd" clip-rule="evenodd" d="M37.9931 45.6312C28.7901 45.6312 21.2396 50.3251 20.4841 59.5575C20.4429 60.0604 21.412 61.1066 21.9008 61.1066H54.0999C55.5642 61.1066 55.5869 59.9372 55.5642 59.559C54.993 50.0672 47.3255 45.6312 37.9931 45.6312ZM66.2021 61.1066H58.6866V61.1063C58.6866 56.7522 57.237 52.734 54.7907 49.5012C61.4304 49.5734 66.8517 52.9051 67.2597 59.9459C67.2761 60.2295 67.2597 61.1066 66.2021 61.1066Z" fill="#E33230"/>
</svg>
