<svg width="61" height="60" viewBox="0 0 61 60" fill="none" xmlns="http://www.w3.org/2000/svg">
<path opacity="0.21" fill-rule="evenodd" clip-rule="evenodd" d="M0 30V37C0 49.7025 10.2975 60 23 60H30.229H37.458C50.1606 60 60.458 49.7025 60.458 37V30V23C60.458 10.2975 50.1606 0 37.458 0H30.229H23C10.2975 0 0 10.2975 0 23V30Z" fill="#8280FF"/>
<path opacity="0.587821" fill-rule="evenodd" clip-rule="evenodd" d="M20.8241 23.3333C20.8241 26.2789 23.2301 28.6667 26.1981 28.6667C29.1661 28.6667 31.5722 26.2789 31.5722 23.3333C31.5722 20.3878 29.1661 18 26.1981 18C23.2301 18 20.8241 20.3878 20.8241 23.3333ZM34.2593 28.6667C34.2593 30.8759 36.0639 32.6667 38.2899 32.6667C40.5159 32.6667 42.3204 30.8759 42.3204 28.6667C42.3204 26.4576 40.5159 24.6667 38.2899 24.6667C36.0639 24.6667 34.2593 26.4576 34.2593 28.6667Z" fill="#8280FF"/>
<path fill-rule="evenodd" clip-rule="evenodd" d="M26.176 31.3333C19.8327 31.3333 14.6284 34.5687 14.1077 40.9323C14.0793 41.2789 14.7473 42 15.0842 42H37.278C38.2872 42 38.3029 41.194 38.2872 40.9333C37.8935 34.3909 32.6086 31.3333 26.176 31.3333ZM45.6196 42H40.4394V41.9998C40.4394 38.9987 39.4402 36.2291 37.7541 34.0008C42.3306 34.0506 46.0673 36.347 46.3485 41.2C46.3598 41.3955 46.3485 42 45.6196 42Z" fill="#8280FF"/>
</svg>
