<svg width="60" height="60" viewBox="0 0 60 60" fill="none" xmlns="http://www.w3.org/2000/svg">
<path opacity="0.21" fill-rule="evenodd" clip-rule="evenodd" d="M0 30V37C0 49.7025 10.2975 60 23 60H30H37C49.7025 60 60 49.7025 60 37V30V23C60 10.2975 49.7025 0 37 0H30H23C10.2975 0 0 10.2975 0 23V30Z" fill="#4AD991"/>
<path d="M29.5 22.25V40.125" stroke="#4AD991" stroke-width="2.75" stroke-linecap="round"/>
<path d="M41.875 22.25L41.875 40.125" stroke="#4AD991" stroke-width="2.75" stroke-linecap="round"/>
<path d="M17.125 22.25L17.125 40.125" stroke="#4AD991" stroke-width="2.75" stroke-linecap="round"/>
<path d="M41.875 40.125C41.875 40.125 40.5 37.375 35.6875 37.375C30.875 37.375 29.5 40.125 29.5 40.125" stroke="#4AD991" stroke-width="2.75" stroke-linecap="round"/>
<path d="M29.5 40.125C29.5 40.125 28.125 37.375 23.3125 37.375C18.5 37.375 17.125 40.125 17.125 40.125" stroke="#4AD991" stroke-width="2.75" stroke-linecap="round"/>
<path d="M41.875 22.25C41.875 22.25 40.5 19.5 35.6875 19.5C30.875 19.5 29.5 22.25 29.5 22.25" stroke="#4AD991" stroke-width="2.75" stroke-linecap="round"/>
<path d="M29.5 22.25C29.5 22.25 28.125 19.5 23.3125 19.5C18.5 19.5 17.125 22.25 17.125 22.25" stroke="#4AD991" stroke-width="2.75" stroke-linecap="round"/>
</svg>
